# xmcd
#
# Track frame offsets:
#	150
#	26068
#	43188
#	58185
#	71115
#	92286
#	104709
#	122479
#	140367
#	164277
#	176807
#	192118
#	208866
#	221743
#	231198
#	251446
#
# Disc length: 3502 seconds
#
# Revision: 0
# Processed by: cddbd v1.5.2PL0 Copyright (c) Steve Scherf et al.
# Submitted via: audiograbber 1.83.01
#
DISCID=f00dac10
DTITLE=Diverse - Greatest Country Hits CD1
DYEAR=1900
DGENRE=
TTITLE0=Willie Nelson - Ride em Cowboy
TTITLE1=Delbert McClinton - Autograph
TTITLE2=Asleep at the Wheel - Before all Hell Breaks Loose
TTITLE3=Dwight Yoakam - Rapid City, South Dakota
TTITLE4=Marty Stewart - Lady Yesterday
TTITLE5=Topall Glaser - Get your Biscuits in the Oven
TTITLE6=Billy Swan - When the Lord closes the Door
TTITLE7=Lyle Lovett - Sold American
TTITLE8=Tom Waits - Highway Cafe
TTITLE9=Mel Tillis - Coca Cola Cowboy
TTITLE10=David Frizzell and Shelly West - You're the Reason Gode Made Oklahoma
TTITLE11=Oak Ridge Boys - Elvira
TTITLE12=Reba McEntire - You're the first Time I've thought about leaving
TTITLE13=George Strait - Right or wrong
TTITLE14=Freddy Fender - Margarita Ville
TTITLE15=Donna Fargo - The happiest Girl in the Whole U.S.A.
EXTD=Viele Grüße an alle FSV-Zwickau Fans!
EXTT0=
EXTT1=
EXTT2=
EXTT3=
EXTT4=
EXTT5=
EXTT6=
EXTT7=
EXTT8=
EXTT9=
EXTT10=
EXTT11=
EXTT12=
EXTT13=
EXTT14=
EXTT15=
PLAYORDER=
